<?xml version="1.0" standalone="no"?>
<!DOCTYPE svg PUBLIC "-//W3C//DTD SVG 20010904//EN"
 "http://www.w3.org/TR/2001/REC-SVG-20010904/DTD/svg10.dtd">
<svg version="1.0" xmlns="http://www.w3.org/2000/svg"
 width="1360.000000pt" height="1360.000000pt" viewBox="0 0 1360.000000 1360.000000"
 preserveAspectRatio="xMidYMid meet">
<metadata>
Created by potrace 1.11, written by Peter Selinger 2001-2013
</metadata>
<g transform="translate(0.000000,1360.000000) scale(0.100000,-0.100000)"
fill="#000000" stroke="none">
<path d="M6329 13436 c-2 -2 -56 -6 -119 -10 -247 -15 -722 -76 -743 -96 -12
-11 -11 -313 2 -399 21 -137 74 -266 160 -386 41 -57 68 -88 166 -194 166
-177 211 -219 252 -231 135 -41 213 62 298 392 25 97 45 179 45 182 0 3 20 14
45 25 25 11 112 60 193 109 81 49 189 110 240 136 108 53 159 87 233 154 106
95 165 133 264 171 104 41 195 84 195 92 0 5 -12 9 -27 10 -16 0 -36 2 -45 4
-23 4 -111 13 -207 21 -42 3 -87 8 -101 11 -30 6 -844 15 -851 9z"/>
<path d="M7985 12992 c-3 -3 -104 -7 -223 -7 -244 -2 -278 -9 -305 -68 -23
-51 -26 -66 -32 -173 -7 -129 1 -139 78 -101 29 15 63 28 77 30 45 7 106 -23
189 -91 44 -37 105 -80 136 -96 l55 -28 51 21 c56 24 63 24 162 -21 65 -29 69
-29 93 -13 21 13 24 22 20 48 -13 76 -125 413 -152 455 -8 13 -26 27 -40 33
-32 12 -101 19 -109 11z"/>
<path d="M3786 12768 c-146 -19 -412 -153 -417 -210 -1 -7 -2 -20 -3 -28 -1
-8 2 -28 7 -45 4 -16 8 -68 8 -115 1 -129 -33 -211 -150 -370 -30 -41 -60 -80
-66 -86 -6 -7 -36 -44 -66 -83 l-54 -71 -55 59 c-66 71 -120 114 -268 215
l-113 78 -97 -73 c-96 -72 -278 -218 -337 -271 -16 -14 -41 -36 -55 -48 -163
-137 -462 -436 -635 -635 -39 -44 -73 -82 -76 -85 -3 -3 -44 -52 -90 -110
-557 -686 -972 -1454 -1235 -2282 -71 -226 -87 -310 -82 -428 10 -198 89 -279
478 -485 197 -104 426 -254 723 -474 466 -345 502 -365 652 -368 90 -2 110 2
197 31 110 37 107 38 147 -41 50 -100 60 -235 26 -362 -9 -35 -49 -152 -90
-260 -131 -351 -165 -490 -165 -672 0 -286 139 -576 387 -810 79 -74 100 -91
285 -227 114 -85 180 -156 204 -218 17 -44 17 -49 -1 -119 -24 -96 -17 -189
28 -410 43 -205 45 -235 52 -630 3 -170 7 -328 10 -350 2 -22 7 -96 11 -165 3
-69 8 -134 10 -145 2 -11 7 -99 10 -195 6 -173 6 -177 -30 -357 -59 -295 -51
-331 94 -410 116 -64 137 -80 160 -128 28 -58 29 -139 2 -252 -23 -99 -22
-194 3 -243 46 -89 265 -351 430 -515 211 -210 324 -259 468 -205 107 40 229
181 213 244 -16 64 -102 120 -291 191 -181 67 -193 100 -139 364 43 214 31
327 -45 412 l-39 44 44 48 c24 27 58 79 76 115 29 58 33 76 33 147 0 67 -4 88
-26 129 l-26 50 75 32 c89 39 151 78 159 102 4 9 15 26 25 37 26 27 153 290
233 480 52 124 75 167 103 193 43 39 62 41 63 5 l0 -28 12 25 c57 129 86 179
147 254 123 152 133 186 115 381 l-7 80 43 31 c24 17 81 50 125 74 124 65 173
119 209 230 38 117 69 144 173 153 128 11 207 91 267 272 27 80 37 159 31 226
-23 231 -11 276 156 552 88 144 113 223 113 352 0 144 -41 238 -152 351 -92
93 -149 119 -371 165 -170 35 -221 55 -317 121 -108 73 -210 176 -395 398 -57
69 -145 166 -195 216 -136 137 -197 169 -333 179 -145 10 -177 16 -224 42 -46
25 -99 84 -147 165 -55 93 -183 160 -346 183 -22 3 -53 7 -70 10 -16 2 -59 7
-95 11 -100 9 -199 30 -265 55 -45 17 -74 37 -115 80 -68 71 -106 89 -166 78
-81 -15 -95 -25 -436 -285 -241 -185 -337 -148 -374 146 -2 14 -4 66 -5 117
-1 62 -7 104 -19 131 -28 62 -100 97 -220 107 -221 18 -234 29 -189 152 12 32
48 117 79 188 69 156 112 278 113 320 1 38 -21 95 -37 95 -6 0 -20 -16 -31
-36 -57 -106 -288 -270 -497 -353 -148 -58 -231 -62 -306 -14 -116 75 -147
312 -77 588 41 163 97 247 202 302 98 53 184 73 368 88 164 13 202 17 243 26
78 17 157 13 205 -10 52 -25 87 -67 158 -187 83 -140 163 -216 241 -228 l37
-6 -2 278 -2 277 27 50 c48 92 113 147 351 299 153 98 215 168 278 316 107
252 231 338 659 460 227 65 299 94 410 165 136 87 201 185 260 390 18 61 43
133 56 162 38 80 128 150 212 166 36 7 35 11 13 -78 -14 -56 -13 -181 2 -216
31 -74 97 -103 224 -101 207 3 439 105 444 195 3 63 -12 96 -83 174 -69 77
-114 177 -214 481 -108 327 -136 405 -190 521 -90 192 -180 281 -283 281 -62
0 -100 -15 -162 -63 l-47 -35 3 88 c5 163 -27 263 -106 334 -66 60 -148 80
-263 64z"/>
<path d="M9750 12640 c-66 -39 -108 -108 -214 -350 -30 -69 -70 -151 -90 -183
-37 -63 -76 -166 -76 -203 0 -102 114 -130 340 -84 58 12 108 24 113 27 13 8
8 -3 -54 -123 -103 -200 -192 -321 -284 -384 -22 -15 -106 -63 -186 -108 -80
-44 -159 -88 -175 -98 l-29 -18 29 29 c90 92 92 244 6 459 -54 135 -130 288
-175 352 -188 263 -338 309 -352 107 -6 -83 10 -148 69 -273 87 -185 99 -244
64 -312 -11 -24 -36 -52 -53 -63 -18 -11 -49 -30 -70 -43 -20 -13 -31 -17 -24
-8 19 22 16 84 -4 106 -29 32 -79 42 -172 35 -47 -4 -93 -8 -102 -10 -9 -1
-38 -6 -66 -10 -60 -8 -149 -41 -165 -60 -33 -39 -8 -92 60 -129 116 -63 261
-66 365 -7 l50 28 0 -62 c0 -52 6 -74 42 -146 23 -46 74 -127 114 -179 39 -52
81 -111 93 -130 24 -37 51 -127 61 -200 14 -103 48 -287 61 -324 8 -21 14 -41
14 -44 0 -4 -49 1 -115 13 -282 52 -279 52 -356 60 -194 20 -191 22 -192 -150
0 -55 13 -237 18 -245 2 -4 7 -31 10 -61 6 -49 36 -194 65 -307 14 -59 66
-172 90 -197 20 -21 20 -21 -23 -53 -95 -72 -187 -206 -327 -477 -107 -207
-144 -268 -260 -420 -104 -137 -154 -241 -175 -363 -17 -97 -23 -358 -12 -452
18 -138 71 -267 189 -455 107 -172 142 -238 184 -345 49 -129 68 -164 117
-217 91 -100 185 -135 372 -139 139 -3 234 9 415 52 212 51 337 74 425 78 80
5 97 3 142 -18 27 -13 81 -53 119 -88 111 -105 129 -109 194 -43 24 25 50 45
56 45 7 0 22 -21 35 -46 44 -91 29 -268 -36 -434 -70 -180 -35 -248 284 -540
132 -121 187 -191 226 -287 49 -124 36 -220 -38 -270 -33 -22 -133 -53 -173
-53 -13 0 -32 -12 -44 -27 -18 -23 -21 -39 -19 -102 4 -152 96 -475 205 -719
116 -258 126 -313 88 -458 -36 -140 -40 -193 -16 -246 11 -25 37 -61 57 -79
89 -79 113 -115 151 -225 52 -150 77 -165 262 -159 476 15 804 171 1001 476
33 50 74 126 91 168 38 96 89 163 170 226 193 149 223 241 169 519 -20 108
-21 123 -8 160 20 58 77 85 195 92 108 7 140 16 180 51 131 116 165 401 118
978 -3 39 -7 81 -10 95 -2 14 -7 71 -10 127 -6 86 -4 106 10 128 15 23 22 25
87 25 153 0 191 42 354 394 49 108 75 143 187 256 97 98 171 186 193 230 16
31 17 55 12 215 -4 99 -9 191 -11 205 -4 22 -16 130 -21 185 -8 93 -61 423
-95 589 -83 412 -242 919 -405 1291 -7 17 -30 68 -50 115 -106 243 -299 604
-463 865 -377 603 -871 1168 -1432 1639 -265 223 -695 524 -965 676 -249 140
-257 144 -314 147 -43 3 -64 -1 -91 -17z m-695 -1553 c-83 -67 -151 -145 -177
-202 l-13 -29 -5 34 c-3 19 -3 52 1 72 11 65 31 84 121 113 46 15 87 31 93 36
5 5 11 9 15 9 3 -1 -13 -15 -35 -33z"/>
<path d="M13400 4907 c-14 -17 -38 -46 -54 -64 l-29 -34 -24 36 c-39 57 -92
75 -130 43 -39 -32 -55 -110 -78 -385 -10 -118 -13 -125 -70 -181 -127 -123
-150 -223 -131 -561 8 -133 14 -141 83 -112 37 15 44 29 146 281 89 223 136
354 196 553 52 172 124 447 119 453 -2 1 -15 -11 -28 -29z"/>
</g>
</svg>
