<?xml version="1.0" standalone="no"?>
<!DOCTYPE svg PUBLIC "-//W3C//DTD SVG 20010904//EN"
 "http://www.w3.org/TR/2001/REC-SVG-20010904/DTD/svg10.dtd">
<svg version="1.0" xmlns="http://www.w3.org/2000/svg"
 width="1360.000000pt" height="1360.000000pt" viewBox="0 0 1360.000000 1360.000000"
 preserveAspectRatio="xMidYMid meet">
<metadata>
Created by potrace 1.11, written by Peter Selinger 2001-2013
</metadata>
<g transform="translate(0.000000,1360.000000) scale(0.100000,-0.100000)"
fill="#000000" stroke="none">
<path d="M6329 13436 c-2 -2 -56 -6 -119 -10 -247 -15 -722 -76 -743 -96 -12
-11 -11 -313 2 -399 21 -137 74 -266 160 -386 41 -57 68 -88 166 -194 166
-177 211 -219 252 -231 135 -41 213 62 298 392 25 97 45 179 45 182 0 3 20 14
45 25 25 11 112 60 193 109 81 49 189 110 240 136 108 53 159 87 233 154 106
95 165 133 264 171 104 41 195 84 195 92 0 5 -12 9 -27 10 -16 0 -36 2 -45 4
-23 4 -111 13 -207 21 -42 3 -87 8 -101 11 -30 6 -844 15 -851 9z"/>
<path d="M7985 12992 c-3 -3 -104 -7 -223 -7 -244 -2 -278 -9 -305 -68 -23
-51 -26 -66 -32 -173 -7 -129 1 -139 78 -101 29 15 63 28 77 30 45 7 106 -23
189 -91 44 -37 105 -80 136 -96 l55 -28 51 21 c56 24 63 24 162 -21 65 -29 69
-29 93 -13 21 13 24 22 20 48 -13 76 -125 413 -152 455 -8 13 -26 27 -40 33
-32 12 -101 19 -109 11z"/>
<path d="M3786 12768 c-146 -19 -412 -153 -417 -210 -1 -7 -2 -20 -3 -28 -1
-8 2 -28 7 -45 4 -16 8 -68 8 -115 1 -128 -33 -211 -150 -370 -30 -41 -60 -80
-66 -86 -6 -7 -36 -44 -66 -83 l-54 -71 -55 59 c-66 71 -120 114 -268 215
l-113 78 -97 -73 c-83 -62 -283 -222 -318 -254 -6 -5 -44 -39 -85 -75 -219
-194 -446 -421 -624 -625 -39 -44 -73 -82 -76 -85 -16 -14 -188 -231 -273
-345 -458 -609 -851 -1380 -1065 -2090 -63 -207 -75 -275 -69 -388 10 -195 91
-277 478 -482 193 -102 425 -254 705 -461 305 -225 434 -314 505 -348 58 -28
76 -31 165 -33 90 -2 110 2 198 31 l99 34 29 -47 c44 -69 63 -143 62 -241 -1
-106 -16 -164 -108 -409 -131 -351 -165 -490 -165 -672 0 -286 139 -576 387
-810 79 -74 100 -91 285 -227 114 -85 180 -156 204 -218 17 -44 17 -49 -1
-119 -24 -96 -17 -189 28 -410 43 -205 45 -235 52 -630 3 -170 7 -328 10 -350
2 -22 7 -96 11 -165 3 -69 8 -134 10 -145 2 -11 7 -99 10 -195 6 -173 6 -177
-30 -357 -59 -295 -51 -331 94 -410 116 -64 137 -80 160 -128 28 -58 29 -139
2 -252 -23 -99 -22 -194 3 -243 46 -89 265 -351 430 -515 211 -210 324 -259
468 -205 107 40 229 181 213 244 -16 64 -102 120 -291 191 -181 67 -193 100
-139 364 43 214 31 327 -45 412 l-39 44 44 48 c24 27 58 79 76 115 29 58 33
76 33 147 0 67 -4 88 -26 129 l-26 50 75 32 c89 39 151 78 159 102 4 9 15 26
25 37 26 27 153 290 233 480 52 124 75 167 103 193 43 39 62 41 63 5 l0 -28
12 25 c57 129 86 179 147 254 123 152 133 186 115 381 l-7 80 43 31 c24 17 81
50 125 74 127 67 172 117 213 242 37 110 63 132 174 142 123 10 203 93 262
271 27 80 37 159 31 226 -12 114 -8 218 9 272 28 90 124 258 126 221 0 -10 1
-76 1 -147 l1 -127 326 2 326 3 0 2223 0 2222 -310 0 -310 -1 -140 -336 c-77
-185 -154 -370 -171 -412 -18 -42 -66 -157 -108 -256 -43 -99 -78 -184 -80
-190 -2 -5 -8 -21 -14 -35 -22 -53 -258 -615 -432 -1030 -100 -239 -185 -441
-189 -448 -5 -9 -24 7 -61 50 -30 35 -90 100 -134 145 l-80 81 -148 349 c-82
191 -155 362 -162 378 -8 17 -60 138 -116 270 -56 132 -110 258 -120 281 -11
22 -28 63 -39 91 -19 48 -46 112 -76 178 -7 17 -59 138 -115 270 -56 132 -110
258 -120 280 -10 22 -46 106 -80 188 l-62 147 -309 0 -309 0 -1 -42 c0 -24 -1
-407 -2 -851 l-2 -808 -50 -17 c-71 -24 -123 -57 -255 -162 -281 -222 -350
-256 -430 -215 -34 18 -74 98 -85 170 -13 85 -14 97 -16 192 -1 62 -7 104 -19
131 -28 62 -100 97 -220 107 -221 18 -234 29 -189 152 12 32 48 117 79 188 69
156 112 278 113 320 1 38 -21 95 -37 95 -6 0 -20 -16 -31 -36 -57 -106 -288
-270 -497 -353 -148 -58 -231 -62 -306 -14 -116 75 -147 312 -77 588 28 112
56 172 105 228 58 65 184 125 300 143 19 3 45 7 58 9 12 2 64 7 115 10 91 6
221 21 268 30 59 12 130 6 172 -14 52 -25 87 -67 158 -187 83 -140 163 -216
241 -228 l37 -6 -2 278 -2 277 27 50 c48 92 113 147 351 299 153 98 215 168
278 316 107 252 231 338 659 460 227 65 299 94 410 165 136 87 201 185 259
387 53 183 89 243 175 293 37 21 116 48 123 42 1 -2 -4 -28 -11 -59 -19 -81
-20 -199 -3 -239 31 -74 97 -103 224 -101 207 3 439 105 444 195 3 63 -12 96
-83 174 -69 77 -114 177 -214 481 -108 327 -136 405 -190 521 -90 192 -180
281 -283 281 -62 0 -100 -15 -162 -63 l-47 -35 3 88 c5 163 -27 263 -106 334
-66 60 -148 80 -263 64z m2016 -6175 c0 -472 -1 -866 -1 -876 -1 -14 -8 -11
-36 17 -40 40 -109 83 -167 103 -22 7 -105 27 -185 44 -134 28 -253 65 -253
80 0 4 39 98 86 210 101 239 288 681 349 824 23 55 77 182 120 283 42 101 80
181 83 178 3 -3 5 -392 4 -863z m-2358 832 c4 -14 17 -49 30 -78 25 -54 51
-115 67 -156 10 -25 10 -25 -81 -6 -8 2 -21 4 -27 4 -10 1 -13 34 -13 131 0
122 10 163 24 105z"/>
<path d="M9750 12639 c-65 -38 -107 -107 -214 -349 -30 -69 -70 -151 -90 -183
-37 -63 -76 -166 -76 -203 0 -102 114 -130 340 -84 58 12 108 24 113 27 13 8
8 -3 -54 -123 -103 -200 -192 -321 -284 -384 -22 -15 -106 -63 -186 -108 -80
-44 -159 -88 -175 -98 l-29 -18 29 29 c90 92 92 244 6 459 -54 135 -130 288
-175 352 -188 263 -338 309 -352 107 -6 -83 10 -148 69 -273 87 -185 99 -244
64 -312 -11 -24 -36 -52 -53 -63 -18 -11 -49 -30 -70 -43 -20 -13 -31 -17 -24
-8 19 22 16 84 -4 106 -29 32 -79 42 -172 35 -47 -4 -93 -8 -102 -10 -9 -1
-38 -6 -66 -10 -60 -8 -149 -41 -165 -60 -33 -39 -8 -92 60 -129 116 -63 261
-66 365 -7 l50 28 0 -62 c0 -52 6 -74 42 -146 23 -46 74 -127 114 -179 39 -52
81 -111 93 -130 24 -37 51 -127 61 -200 14 -103 48 -287 61 -324 8 -21 14 -41
14 -44 0 -4 -49 1 -115 13 -282 52 -279 52 -356 60 -194 20 -191 22 -192 -150
0 -55 13 -237 18 -245 2 -4 7 -31 10 -61 6 -49 36 -194 65 -307 14 -59 66
-172 90 -197 20 -21 20 -21 -23 -53 -55 -41 -113 -109 -177 -208 -28 -43 -53
-81 -55 -83 -2 -2 -23 26 -46 63 l-41 66 -309 0 c-287 0 -309 -1 -310 -17 -1
-23 -1 -4404 0 -4420 1 -10 73 -13 326 -13 l325 0 0 942 0 942 33 -30 c83 -78
170 -106 342 -110 133 -3 233 9 390 45 l79 19 16 -21 c8 -12 17 -26 20 -32 3
-6 48 -80 101 -165 99 -159 409 -660 667 -1080 80 -129 163 -264 186 -300 113
-180 124 -201 130 -261 17 -152 107 -444 202 -657 116 -258 126 -313 88 -458
-36 -140 -40 -193 -16 -246 11 -25 37 -61 57 -79 89 -79 113 -115 151 -225 34
-99 64 -140 110 -153 36 -10 233 -8 321 4 313 41 531 136 703 305 82 81 176
222 220 329 38 96 89 163 170 226 193 149 223 241 169 519 -20 108 -21 123 -8
160 19 56 76 84 185 92 118 8 137 12 175 39 143 106 182 392 133 990 -3 39 -7
81 -10 95 -2 14 -7 71 -10 127 -6 86 -4 106 10 128 15 23 22 25 87 25 153 0
191 42 354 394 49 108 75 143 187 256 97 98 171 186 193 230 16 31 17 55 12
215 -4 99 -9 191 -11 205 -4 22 -16 130 -21 185 -8 93 -61 423 -95 589 -83
412 -242 919 -405 1291 -7 17 -30 68 -50 115 -106 243 -299 604 -463 865 -377
603 -871 1168 -1432 1639 -249 209 -623 474 -900 636 -69 40 -136 80 -150 89
-14 9 -63 35 -109 58 -97 50 -153 56 -211 22z m-695 -1552 c-83 -67 -151 -145
-177 -202 l-13 -29 -5 34 c-3 19 -3 52 1 72 11 65 31 84 121 113 46 15 87 31
93 36 5 5 11 9 15 9 3 -1 -13 -15 -35 -33z m856 -4683 c22 -46 38 -194 21
-194 -4 0 -32 42 -64 93 l-56 92 26 28 c14 15 31 27 38 27 7 0 22 -21 35 -46z"/>
<path d="M13371 4873 l-53 -64 -24 35 c-40 58 -93 76 -131 44 -39 -32 -55
-110 -78 -385 -10 -118 -13 -125 -70 -181 -127 -123 -150 -223 -131 -561 8
-133 14 -141 83 -112 37 15 44 29 146 281 89 223 136 354 196 553 51 167 125
447 119 452 -2 1 -27 -27 -57 -62z"/>
</g>
</svg>
