<svg id="Layer_1" data-name="Layer 1" xmlns="http://www.w3.org/2000/svg" viewBox="0 0 340 340"><defs><style>.cls-1{fill:#a0ebcb;}.cls-2{font-size:150px;fill:#1c6ba0;font-family:DIN Alternate;font-weight:700;}</style></defs><title>MN_logo-01</title><g id="_Group_" data-name="&lt;Group&gt;"><path class="cls-1" d="M325.33,160.62c-9.84-1-13.07-6.27-17.59-14.92-3-5.78-1.66-12.65-5.67-17.45,3.72,1.06,8,11.45,9.93,14.53,0.56,0.92,5.23,13.61,4.65,13.61,0.9,0.43,1-1.87,2-1.87,3.35,0,5.27,4.53,9.12,4.15l-2.28,1.86C325.58,160.35,324.69,160.56,325.33,160.62Z"/><path class="cls-1" d="M250.16,100.82c-3.49-5.61-27.78,4.95-33.15,6.18,5.14-3.18,10.54-6.51,14.34-11.32,2.59-3.27,1.6-10,6.1-10a19.15,19.15,0,0,1,13.12,4.65c1.55,1.28,3.43,2.09,3.76,4.3,0.47,3.24-3.19,5.36-3,6a1.51,1.51,0,0,0,.11.22l-1.15.25A2.21,2.21,0,0,0,250.16,100.82Z"/><path class="cls-1" d="M251.49,100.91c1.55,2.75,7.76-3.6,8-4.44,4.8,6.73,9.8,4.15,14.65-1.2,7.47,9.6,11.69,2.87,21.82,5.37,4,1-3.25,15.32-4.52,18.09v0h0v0l-0.06.12c-5.21-5.47-12-4.87-18.94-4.87-8.11,0-7,5-14.92.7-2.32-1.28-5.14-.35-7.57-1.25-6.73-2.56,2.09-8.49.43-12.33Z"/><path class="cls-1" d="M330.77,147.12c0-.17-0.07-0.35-0.1-0.55C330.71,146.79,330.74,147,330.77,147.12Zm-124-84c3.62,0,6.43-2.22,6.43-4.13a1.77,1.77,0,0,0-.87-1.53,4,4,0,0,0-2.14-.49c-0.08,0-9.25.15-9.8,2.63a1.76,1.76,0,0,0,.91,1.76,1.55,1.55,0,0,0,.72.49l0.75,0.35,0.89,0.42a1.08,1.08,0,0,0,.54.18h0.15A9,9,0,0,0,206.77,63.1Zm19.64,1.51c2.85-4.35-1.4-11.81-3.16-15.78-1.23-2.79-9.55-14-10.05-4.75-0.3,5.58,8,12.53.87,15.72-5.21,2.38.76,9.51,3.37,13,0.35,0.47.63,0.87,0.83,1.19,1.73,2.91,1.4,9.71,3.33,13.76-4.89-.7-10.41-2.19-15.34-2.19-2.25,0,.47,21.54,4.18,23.68-6.73,4.34-9.15,14.87-14,20.77-5.63,6.83-5.88,9.54-5.88,18.36,0,10.26,6.53,13.9,9.52,23s12.81,8.16,20.82,6.28c3.87-.91,8.06-2.08,12-2.08,3.77,0,6,4.84,8.07,4.84,0.94,0,2.24-3,3.15-2.05,2.27,2.28.85,9.24-.4,11.64-3.73,7.18,9,11.92,12,18.71,2.34,5.27,1,8.18-5,8.76-3.72.54,1.72,15.5,2.39,17.26,1.26,3.32,4.39,8.25,3.87,12-0.47,3.34-2.85,7.26.67,9.9,5.15,3.88,2.35,9.09,7.47,9.09,11.84,0,23.44-3.14,28.56-16,2.28-5.73,6.34-5.12,8-9.54,2.64-7.08-5.64-14,5.72-14,10,0,5.24-26.68,5.24-31.58,0-2.69,1.67-2,3.48-2,4.42,0,6.43-7.91,8.13-11,2.3-4.19,7.43-6.88,9-11.37a163.18,163.18,0,0,0-2.72-24.35v0l-0.06-.3c0-.11,0-0.23-0.07-0.35h0c0-.07,0-0.13,0-0.2l-0.06-.3s0-.07,0-0.11l0-.16A167,167,0,0,0,245.22,30c-6.66-3.56-8.13,6.56-11.28,11.83-5.77,9.57.66,8.77,8.9,6.79-2.2,4.34-4.68,10.07-9,12.76-5.32,3.3-11.69,5.17-14.42,11.44C218.24,65,223.56,69,226.41,64.61Zm-112.89,203c5-5.07.58,4.1,3.71-3.28,1.47-3.44,5.31-5.46,5.52-9.56,0.06-1.61-.74-3.36-0.43-5,2.45-2.61,6.14-2.76,8.12-6,1.39-2.24,1-5.82,4.65-5.82,4.56,0,6.24-4.14,7.3-8.19,0.87-3.31-.38-5.83.15-9,0.59-3.57,3.16-6.5,4.81-9.59,3-5.53,2.56-10.88-1.83-15.22-4.16-4.73-10.32-3-15.32-6-7.15-4.3-11.32-12.56-17.81-17.87-5.67-4.63-9.73,1.23-14.24-6.63s-17.68-2.82-22.06-8.95-13.94,8.19-19.35,8.19c-2.3,0-3.83-2.6-3.83-10.47,0-6.95-11.91-2.5-10.74-6.51,1.35-4.62,4.12-8.79,5.15-13.51,0.3-1.37-1.06-3.5-1.3-1.88-2.66,4.29-10,8.35-14.67,9.62-10.15,2.76-8.21-12.61-5.79-18,2.59-5.73,9.58-5.93,15-6.31,6.07-.43,8.39-2.69,11.87,3.51,1.34,2.42,3.58,6.32,6.89,6.32,0.49,0-.61-11.64.28-13.69,3.09-7.11,12.38-7,15.36-15.22,4.64-12.49,18-9.18,27.08-16.12,7.32-5.57,2.74-15,12.37-16.62-1.56,6.17-1.67,10.29,5.83,9.68,4.37-.35,13.75-3,7.65-8.61-6.25-5.82-8.95-41-21.68-28.22,1.58-11.47-4.92-15-14.82-9.83-6,3.11-3,2.83-3.38,8.41-0.32,5.11-5.55,9.77-8.18,13.77-2.71-3.68-6.82-6-10.49-8.53A166.25,166.25,0,0,0,8.14,128.68c-3.69,12.23,0,14.3,10.62,19.85,9.62,5,17.9,12.34,26.89,18.32,3.91,2.6,7.74,2.08,11.8.43l0.88-.37c2.91,3.4,2.89,7.84,1.55,11.9-2.54,7.76-6.94,15.72-5.59,24.24,1.32,8.29,6.54,14.77,13.06,19.6,3.53,2.62,9.64,6.19,7.71,10.37-1.39,3,1.53,11.68,1.7,15.16,0.31,6.07.22,12.16,0.52,18.23,0.25,5.12.82,10.19,0.83,15.32,0,3.37-2.09,8.61-1.62,11.71C77,297,82,296.73,83.38,299.71c2.12,4.42-2.37,8.67.64,12.89,2.74,3.84,13,16.67,17.79,16.83,3.16,0.44,6.48-2.14,7.93-4.7,2.09-3.77-6.67-5.93-8.77-6.89-5.94-2.72,3.82-13.16-3.42-19,3.4-2.74,5.54-7.94,2.4-11.68,1-.44,6.52-2.51,5.77-3.74C106.52,284.61,113.69,267.43,113.52,267.61Zm215.51-53-1.32,1.59-1.33,1.6c-1-1.65-1.86-2.39-2.7-2.39-1.93,0-2.32,3.22-2.73,8.53a22.65,22.65,0,0,1-.59,4.49c-4.92,3.32-4.66,8-4.39,12.87,0.06,1.22.13,2.48,0.13,3.77a0.73,0.73,0,0,0,.32.59,0.7,0.7,0,0,0,.38.11,0.58,0.58,0,0,0,.26,0c0.59-.24,1.14-0.49,1.65-0.73A165.19,165.19,0,0,0,329,214.59ZM205.12,34.44c0.72-.36,1-0.51-2.29-9.81-0.26-.73-0.46-1.28-0.54-1.54-0.39-1.2-1.42-1.81-3.07-1.81a17,17,0,0,0-2.13.19,12.66,12.66,0,0,1-1.56.15c-1.46,0-2.69,0-3.77-.09-0.8,0-1.5,0-2.11,0-1.53,0-3.1.12-3.91,1.61-0.63,1.18-.75,3.06-0.75,6.34a0.7,0.7,0,0,0,1.13.55,4.74,4.74,0,0,1,2.91-1.2c1.64,0,3.09,1.24,4.49,2.44a9.24,9.24,0,0,0,3.57,2.27,0.69,0.69,0,0,0,.66.48,5.3,5.3,0,0,0,1.69-.76,1.67,1.67,0,0,1,.77-0.17,6.11,6.11,0,0,1,2.57.88,4.41,4.41,0,0,0,1.8.64A1.19,1.19,0,0,0,205.12,34.44ZM184.54,13.61a18.89,18.89,0,0,0,3.74-1.73,165.62,165.62,0,0,0-48.31.9c-0.72.12-1.44,0.24-2.17,0.38,0,1.32,0,2.61,0,3.9-0.28,10.78,3.62,14.87,9.53,21.06,0.67,0.71,1.38,1.44,2.11,2.22,1.28,1.38,2.48,2.06,3.65,2.06,3.62,0,5.15-6.39,6.25-11.06a24.13,24.13,0,0,1,.89-3.22c0.78-.13,2.34-1,5.6-3A49.17,49.17,0,0,1,171.3,22a18.08,18.08,0,0,0,6-4,22.67,22.67,0,0,1,4-3A28.73,28.73,0,0,1,184.54,13.61Z"/><path class="cls-1" d="M330.67,146.57c0,0.2.07,0.38,0.1,0.55C330.74,147,330.71,146.79,330.67,146.57Z"/><path class="cls-1" d="M330.53,145.88l-0.06-.3Z"/><path class="cls-1" d="M325.33,160.62l0.1-.08Z"/><path class="cls-1" d="M325.33,160.62c-0.64-.06.25-0.27,0.11-0.09h0Z"/><path class="cls-1" d="M326.38,217.78l1.33-1.6,1.32-1.59A165.2,165.2,0,0,1,318.71,245c-0.51.24-1.06,0.49-1.65,0.73a0.58,0.58,0,0,1-.26,0,0.7,0.7,0,0,1-.38-0.11,0.73,0.73,0,0,1-.32-0.59c0-1.29-.07-2.55-0.13-3.77-0.27-4.91-.53-9.55,4.39-12.87a22.65,22.65,0,0,0,.59-4.49c0.41-5.31.8-8.53,2.73-8.53C324.52,215.39,325.38,216.13,326.38,217.78Z"/><path class="cls-1" d="M291.42,118.73c1.27-2.77,8.56-17.09,4.52-18.09-10.13-2.5-14.35,4.23-21.82-5.37-4.85,5.35-9.85,7.93-14.65,1.2-0.22.84-6.43,7.19-8,4.44a1.5,1.5,0,0,1-.11-0.22c-0.24-.66,3.42-2.78,3-6-0.33-2.21-2.21-3-3.76-4.3a19.15,19.15,0,0,0-13.12-4.65c-4.5,0-3.51,6.69-6.1,10-3.8,4.81-9.2,8.14-14.34,11.32,5.37-1.23,29.66-11.79,33.15-6.18a2.21,2.21,0,0,1,.18.34c1.66,3.84-7.16,9.77-.43,12.33,2.43,0.9,5.25,0,7.57,1.25,7.87,4.33,6.81-.7,14.92-0.7,6.89,0,13.73-.6,18.94,4.87a0.64,0.64,0,0,1,.06-0.12v0a0,0,0,0,1,0,0A0,0,0,0,1,291.42,118.73Zm3.1-1.11c-0.69.75-1.36,1.52-2,2.32l2.39,1.94,2.45,1.9Q296,120.69,294.52,117.62Zm22.13,38.77c0.58,0-4.09-12.69-4.65-13.61-1.88-3.08-6.21-13.47-9.93-14.53,4,4.8,2.65,11.67,5.67,17.45,4.52,8.65,7.75,13.93,17.59,14.92l0.1-.08h0l2.28-1.86c-3.85.38-5.77-4.15-9.12-4.15C317.7,154.52,317.55,156.82,316.65,156.39Zm13.88-10.48a163.18,163.18,0,0,1,2.72,24.35c-1.56,4.49-6.69,7.18-9,11.37-1.7,3.11-3.71,11-8.13,11-1.81,0-3.48-.72-3.48,2,0,4.9,4.79,31.58-5.24,31.58-11.36,0-3.08,6.91-5.72,14-1.64,4.42-5.7,3.81-8,9.54-5.12,12.89-16.72,16-28.56,16-5.12,0-2.32-5.21-7.47-9.09-3.52-2.64-1.14-6.56-.67-9.9,0.52-3.74-2.61-8.67-3.87-12-0.67-1.76-6.11-16.72-2.39-17.26,6.06-.58,7.35-3.49,5-8.76-3-6.79-15.76-11.53-12-18.71,1.25-2.4,2.67-9.36.4-11.64-0.91-.91-2.21,2.05-3.15,2.05-2,0-4.3-4.84-8.07-4.84-4,0-8.18,1.17-12,2.08-8,1.88-17.79,3-20.82-6.28s-9.52-12.75-9.52-23c0-8.82.25-11.53,5.88-18.36,4.89-5.9,7.31-16.43,14-20.77-3.71-2.14-6.43-23.68-4.18-23.68,4.93,0,10.45,1.49,15.34,2.19-1.93-4.05-1.6-10.85-3.33-13.76-0.2-.32-0.48-0.72-0.83-1.19l2,0c2.73-6.27,9.1-8.14,14.42-11.44,4.32-2.69,6.8-8.42,9-12.76-8.24,2-14.67,2.78-8.9-6.79,3.15-5.27,4.62-15.39,11.28-11.83a167,167,0,0,1,85,114.45l0,0.16s0,0.07,0,.11l0.06,0.3c0,0.07,0,.13,0,0.2h0C330.44,145.46,330.49,145.68,330.53,145.91Z"/><path class="cls-1" d="M291.42,118.73a0,0,0,0,0,0,0A0.08,0.08,0,0,0,291.42,118.73Z"/><path class="cls-1" d="M291.4,118.79a0.64,0.64,0,0,0-.06.12A0.62,0.62,0,0,1,291.4,118.79Z"/><path class="cls-1" d="M219.42,72.82l-2,0c-2.61-3.53-8.58-10.66-3.37-13,7.17-3.19-1.17-10.14-.87-15.72,0.5-9.21,8.82,2,10.05,4.75,1.76,4,6,11.43,3.16,15.78S218.24,65,219.42,72.82Z"/><path class="cls-1" d="M213.2,59c0,1.91-2.81,4.13-6.43,4.13a9,9,0,0,1-2.42-.33H204.2a1.08,1.08,0,0,1-.54-0.18l-0.89-.42L202,61.83a1.55,1.55,0,0,1-.72-0.49,1.76,1.76,0,0,1-.91-1.76c0.55-2.48,9.72-2.63,9.8-2.63a4,4,0,0,1,2.14.49A1.77,1.77,0,0,1,213.2,59Z"/><path class="cls-1" d="M189,28.78a4.74,4.74,0,0,0-2.91,1.2,0.7,0.7,0,0,1-1.13-.55c0-3.28.12-5.16,0.75-6.34,0.81-1.49,2.38-1.61,3.91-1.61,0.61,0,1.31,0,2.11,0,1.08,0,2.31.09,3.77,0.09a12.66,12.66,0,0,0,1.56-.15,17,17,0,0,1,2.13-.19c1.65,0,2.68.61,3.07,1.81,0.08,0.26.28,0.81,0.54,1.54,3.31,9.3,3,9.45,2.29,9.81a1.19,1.19,0,0,1-.54.12,4.41,4.41,0,0,1-1.8-.64,6.11,6.11,0,0,0-2.57-.88,1.67,1.67,0,0,0-.77.17,5.3,5.3,0,0,1-1.69.76,0.69,0.69,0,0,1-.66-0.48,9.24,9.24,0,0,1-3.57-2.27C192.12,30,190.67,28.78,189,28.78Z"/><path class="cls-1" d="M188.28,11.88a18.89,18.89,0,0,1-3.74,1.73A28.73,28.73,0,0,0,181.28,15a22.67,22.67,0,0,0-4,3,18.08,18.08,0,0,1-6,4,49.17,49.17,0,0,0-5.5,3.08c-3.26,2-4.82,2.89-5.6,3a24.13,24.13,0,0,0-.89,3.22c-1.1,4.67-2.63,11.06-6.25,11.06-1.17,0-2.37-.68-3.65-2.06-0.73-.78-1.44-1.51-2.11-2.22-5.91-6.19-9.81-10.28-9.53-21.06,0-1.29,0-2.58,0-3.9,0.73-.14,1.45-0.26,2.17-0.38A165.62,165.62,0,0,1,188.28,11.88Z"/><path class="cls-1" d="M117.23,264.33c-3.13,7.38,1.32-1.79-3.71,3.28,0.17-.18-7,17-7.8,15.77,0.75,1.23-4.76,3.3-5.77,3.74,3.14,3.74,1,8.94-2.4,11.68,7.24,5.88-2.52,16.32,3.42,19,2.1,1,10.86,3.12,8.77,6.89-1.45,2.56-4.77,5.14-7.93,4.7-4.81-.16-15.05-13-17.79-16.83-3-4.22,1.48-8.47-.64-12.89-1.41-3-6.37-2.75-6.89-6.27-0.47-3.1,1.63-8.34,1.62-11.71,0-5.13-.58-10.2-0.83-15.32-0.3-6.07-.21-12.16-0.52-18.23C76.59,244.7,73.67,236,75.06,233c1.93-4.18-4.18-7.75-7.71-10.37-6.52-4.83-11.74-11.31-13.06-19.6-1.35-8.52,3.05-16.48,5.59-24.24,1.34-4.06,1.36-8.5-1.55-11.9l-0.88.37-0.71-2.58c5.41,0,15.09-14.31,19.35-8.19s17.62,1.21,22.06,8.95,8.57,2,14.24,6.63c6.49,5.31,10.66,13.57,17.81,17.87,5,3,11.16,1.31,15.32,6,4.39,4.34,4.79,9.69,1.83,15.22-1.65,3.09-4.22,6-4.81,9.59-0.53,3.19.72,5.71-.15,9-1.06,4-2.74,8.19-7.3,8.19-3.65,0-3.26,3.58-4.65,5.82-2,3.2-5.67,3.35-8.12,6-0.31,1.61.49,3.36,0.43,5C122.54,258.87,118.7,260.89,117.23,264.33Z"/><path class="cls-1" d="M47.32,134.21c-1,4.72-3.8,8.89-5.15,13.51-1.17,4,10.74-.44,10.74,6.51,0,7.87,1.53,10.47,3.83,10.47l0.71,2.58c-4.06,1.65-7.89,2.17-11.8-.43-9-6-17.27-13.31-26.89-18.32C8.12,143,4.45,140.91,8.14,128.68A166.5,166.5,0,0,1,69.33,42.53c3.67,2.56,7.78,4.85,10.49,8.53,2.63-4,7.86-8.66,8.18-13.77,0.39-5.58-2.65-5.3,3.38-8.41,9.9-5.12,16.4-1.64,14.82,9.83,12.73-12.73,15.43,22.4,21.68,28.22,6.1,5.63-3.28,8.26-7.65,8.61-7.5.61-7.39-3.51-5.83-9.68-9.63,1.63-5.05,11.05-12.37,16.62C92.92,89.42,79.59,86.11,75,98.6c-3,8.18-12.27,8.11-15.36,15.22-0.89,2.05.21,13.69-.28,13.69-3.31,0-5.55-3.9-6.89-6.32-3.48-6.2-5.8-3.94-11.87-3.51-5.41.38-12.4,0.58-15,6.31-2.42,5.35-4.36,20.72,5.79,18,4.67-1.27,12-5.33,14.67-9.62C46.26,130.71,47.62,132.84,47.32,134.21Z"/></g><text class="cls-2" transform="translate(61.86 220.8)">MN</text></svg>